<svg width="18" height="15" viewBox="0 0 18 15" fill="none" xmlns="http://www.w3.org/2000/svg">
<path d="M0 1.25C0 0.585938 0.546875 0 1.25 0H16.25C16.9141 0 17.5 0.585938 17.5 1.25C17.5 1.95312 16.9141 2.5 16.25 2.5H1.25C0.546875 2.5 0 1.95312 0 1.25ZM0 7.5C0 6.83594 0.546875 6.25 1.25 6.25H16.25C16.9141 6.25 17.5 6.83594 17.5 7.5C17.5 8.20312 16.9141 8.75 16.25 8.75H1.25C0.546875 8.75 0 8.20312 0 7.5ZM17.5 13.75C17.5 14.4531 16.9141 15 16.25 15H1.25C0.546875 15 0 14.4531 0 13.75C0 13.0859 0.546875 12.5 1.25 12.5H16.25C16.9141 12.5 17.5 13.0859 17.5 13.75Z" fill="#EBE1D4"/>
</svg>
