<svg width="100%" height="100%" viewBox="0 0 11 11" fill="none" xmlns="http://www.w3.org/2000/svg">
    <path
        d="M9.8125 1.8125L6.53125 5.09375L9.8125 8.40625C10.2188 8.78125 10.2188 9.4375 9.8125 9.8125C9.4375 10.2188 8.78125 10.2188 8.40625 9.8125L5.125 6.53125L1.8125 9.8125C1.4375 10.2188 0.78125 10.2188 0.40625 9.8125C0 9.4375 0 8.78125 0.40625 8.40625L3.6875 5.09375L0.40625 1.8125C0 1.4375 0 0.78125 0.40625 0.40625C0.78125 0 1.4375 0 1.8125 0.40625L5.125 3.6875L8.40625 0.40625C8.78125 0 9.4375 0 9.8125 0.40625C10.2188 0.78125 10.2188 1.4375 9.8125 1.8125Z"
        fill="currentColor" />
</svg>